# AST/ASF file generated using VICON BodyLanguage
# -----------------------------------------------
:version 1.10
:name VICON
:units
  mass 1.0
  length 0.45
  angle deg
:documentation
   .ast/.asf automatically generated from VICON data using
   VICON BodyBuilder and BodyLanguage model FoxedUp or BRILLIANT.MOD
:root
   order TX TY TZ RX RY RZ
   axis XYZ
   position 0 0 0  
   orientation 0 0 0 
:bonedata
  begin
     id 1 
     name lhipjoint
     direction 0.693937 -0.600361 0.397515 
     length 2.37164 
     axis 0 0 0  XYZ
  end
  begin
     id 2 
     name lfemur
     direction 0.34202 -0.939693 0  
     length 6.18497  
     axis 0 0 20  XYZ
    dof rx ry rz
    limits (-160.0 20.0)
           (-70.0 70.0)
           (-60.0 70.0)
  end
  begin
     id 3 
     name ltibia
     direction 0.34202 -0.939693 0   
     length 6.91601   
     axis 0 0 20   XYZ
    dof rx
    limits (-10.0 170.0)
  end
  begin
     id 4 
     name lfoot
     direction 0.0978718 -0.2689 0.958182   
     length 1.81453   
     axis -90 7.62852e-016 20   XYZ
    dof rx rz
    limits (-45.0 90.0)
           (-70.0 20.0)
  end
  begin
     id 5 
     name ltoes
     direction 1.53569e-011 -4.21951e-011 1   
     length 0.912052   
     axis -90 7.62852e-016 20   XYZ
    dof rx
    limits (-90.0 20.0)
  end
  begin
     id 6 
     name rhipjoint
     direction -0.643996 -0.637876 0.422354   
     length 2.23216  
     axis 0 0 0  XYZ 
  end
  begin
     id 7 
     name rfemur
     direction -0.34202 -0.939693 0   
     length 6.15404   
     axis 0 0 -20   XYZ
    dof rx ry rz
    limits (-160.0 20.0)
           (-70.0 70.0)
           (-70.0 60.0)
  end
  begin
     id 8 
     name rtibia
     direction -0.34202 -0.939693 0   
     length 6.86744   
     axis 0 0 -20   XYZ
    dof rx
    limits (-10.0 170.0)
 end
 begin
     id 9 
     name rfoot
     direction -0.118701 -0.326127 0.937844   
     length 1.9243  
     axis -90 -7.62852e-016 -20   XYZ
    dof rx rz
    limits (-45.0 90.0)
           (-20.0 70.0)
  end
  begin
     id 10 
     name rtoes
     direction -1.5356e-011 -4.2181e-011 1   
     length 0.958865   
     axis -90 -7.62852e-016 -20   XYZ
    dof rx
    limits (-90.0 20.0)
  end
  begin
     id 11 
     name lowerback
     direction 0.0310826 0.968686 -0.246334   
     length 2.00021   
     axis 0 0 0   XYZ
    dof rx ry rz
    limits (-20.0 45.0)
           (-30.0 30.0)
           (-30.0 30.0)
  end
  begin
     id 12 
     name upperback
     direction -0.0152834 0.999474 -0.0286152   
     length 2.03728   
     axis 0 0 0   XYZ
    dof rx ry rz
    limits (-20.0 45.0)
           (-30.0 30.0)
           (-30.0 30.0)
  end
  begin
     id 13 
     name thorax
     direction -0.0323701 0.996236 0.0804149   
     length 2.16   
     axis 0 0 0   XYZ
    dof rx ry rz
    limits (-20.0 45.0)
           (-30.0 30.0)
           (-30.0 30.0)
  end
  begin
     id 14 
     name lowerneck
     direction 0.0307935 0.982251 0.185027   
     length 1.43558   
     axis 0 0 0   XYZ
    dof rx ry rz
    limits (-20.0 45.0)
           (-30.0 30.0)
           (-30.0 30.0)
  end
  begin
     id 15 
     name upperneck
     direction -0.0927153 0.994775 0.0427454   
     length 1.44603   
     axis 0 0 0   XYZ
    dof rx ry rz
    limits (-20.0 45.0)
           (-30.0 30.0)
           (-30.0 30.0)
  end
  begin
     id 16
     name head
     direction -0.0341265 0.999406 -0.00472033  
     length 1.45931  
     axis 0 0 0   XYZ
    dof rx ry rz
    limits (-20.0 45.0)
           (-30.0 30.0)
           (-30.0 30.0)
  end
  begin
     id 17 
     name lclavicle
     direction 0.820755 0.555306 -0.134151  
     length 2.66075  
     axis 0 0 0   XYZ
    dof ry rz
    limits (-20.0 10.0)
           (0.0 20.0)
  end
  begin
     id 18 
     name lhumerus
     direction 1 -4.48971e-011 5.24853e-027   
     length 5.0546   
     axis -180 -30 -90   XYZ
    dof rx ry rz
    limits (-60.0 90.0)
           (-90.0 90.0)
           (-90.0 90.0)
  end
  begin
     id 19
     name lradius
     direction 1 -4.48971e-011 2.76575e-028   
     length 3.39013   
     axis -180 -30 -90   XYZ
    dof rx
    limits (-10.0 170.0)
  end
  begin
     id 20
     name lwrist
     direction 1 -4.48939e-011 -2.27826e-027   
     length 1.69507   
     axis 2.17013e-015 90 90   XYZ
    dof ry
    limits (-180.0 0.0)
 end
  begin
     id 21 
     name lhand
     direction 1 -4.49009e-011 -4.55652e-027   
     length 0.572425   
     axis 2.90745e-015 90 90   XYZ
    dof rx rz
    limits (-90.0 90.0)
           (-45.0 45.0)
  end
  begin
     id 22 
     name lfingers
     direction 1 -4.48955e-011 -9.11303e-027   
     length 0.461504   
     axis 5.81489e-015 90 90   XYZ
    dof rx
    limits (0.0 90.0)
  end
  begin
     id 23
     name lthumb
     direction 0.707107 -6.34929e-011 0.707107   
     length 0.66263   
     axis -90 45 2.85299e-015   XYZ
    dof rx rz
    limits (-45.0 45.0)
           (-45.0 45.0)
  end
  begin
     id 24 
     name rclavicle
     direction -0.754477 0.632921 -0.173712   
     length 2.73081  
     axis 0 0 0   XYZ 
    dof ry rz
    limits (-10.0 20.0)
           (-20.0 0.0)
  end
  begin
     id 25 
     name rhumerus
     direction -1 -4.48969e-011 5.1496e-027  
     length 5.0701   
     axis -180 30 90   XYZ
    dof rx ry rz
    limits (-90.0 60.0)
           (-90.0 90.0)
           (-90.0 90.0)
  end
  begin
     id 26 
     name rradius
     direction -1 -4.48967e-011 -7.15624e-028   
     length 3.14957   
     axis -180 30 90   XYZ
    dof rx
    limits (-10.0 170.0)
  end
  begin
     id 27 
     name rwrist
     direction -1 -4.48938e-011 -2.27826e-027   
     length 1.57479   
     axis 2.17013e-015 -90 -90   XYZ
    dof ry
    limits (-180.0 0.0)
  end
  begin
     id 28
     name rhand
     direction -1 -4.49008e-011 -4.55652e-027   
     length 0.718191   
     axis 2.90745e-015 -90 -90   XYZ
    dof rx rz
    limits (-90.0 90.0)
           (-45.0 45.0)
  end
  begin
     id 29
     name rfingers
     direction -1 -4.48953e-011 -9.11303e-027   
     length 0.579024   
     axis 5.81489e-015 -90 -90   XYZ
    dof rx
    limits (0.0 90.0)
  end
  begin
     id 30
     name rthumb
     direction -0.707107 -6.34937e-011 0.707107   
     length 0.831366   
     axis -90 -45 -2.85299e-015   XYZ
    dof rx rz
    limits (-45.0 45.0)
           (-45.0 45.0)
  end
:hierarchy
  begin
    root lhipjoint rhipjoint lowerback
    lhipjoint lfemur
    lfemur ltibia
    ltibia lfoot
    lfoot ltoes
    rhipjoint rfemur
    rfemur rtibia
    rtibia rfoot
    rfoot rtoes
    lowerback upperback
    upperback thorax
    thorax lowerneck lclavicle rclavicle
    lowerneck upperneck
    upperneck head
    lclavicle lhumerus
    lhumerus lradius
    lradius lwrist
    lwrist lhand lthumb
    lhand lfingers
    rclavicle rhumerus
    rhumerus rradius
    rradius rwrist
    rwrist rhand rthumb
    rhand rfingers
  end

#!OML:ASF H:\Male1\Project 1\Capture day 1\Session 1\Male1.ASF
:FULLY-SPECIFIED
:DEGREES
182
root -10.0507 15.0453 -2.48477 -3.20583 -12.9845 -3.24091
lowerback 8.77987 2.19489 1.61581
upperback 4.98837 3.00121 -1.37093
thorax 0.40936 1.54581 -2.56417
lowerneck -6.15147 10.4587 12.6111
upperneck 24.2526 14.5233 -7.31987
head 10.2203 7.15924 -2.95803
rclavicle 3.00165e-014 -2.14687e-014
rhumerus -46.7952 -1.71383 -80.573
rradius 32.5679
rwrist -19.8659
rhand -18.446 0.724189
rfingers 7.12502
rthumb 7.83988 -29.1104
lclavicle 3.00165e-014 -2.14687e-014
lhumerus -37.6696 -3.63013 78.1245
lradius 32.5369
lwrist 3.46422
lhand -18.215 12.0294
lfingers 7.12502
lthumb 8.06279 41.8556
rfemur 1.31011 -0.0988013 19.4779
rtibia 25.5689
rfoot -28.5148 -26.805
rtoes -12.9821
lfemur -5.75678 -19.8403 0.868688
ltibia 24.878
lfoot -13.444 22.9963
ltoes -4.75645
183
root -9.82202 15.0207 -2.44048 -3.26482 -12.7135 -3.15647
lowerback 8.83398 1.88002 0.968555
upperback 5.07074 2.53751 -1.07485
thorax 0.394362 1.29604 -1.86005
lowerneck -6.39563 10.8107 12.1152
upperneck 25.013 15.1553 -7.39568
head 10.5807 7.38203 -2.7982
rclavicle 1.88845e-014 2.38542e-015
rhumerus -46.8387 -0.439793 -80.3936
rradius 32.6746
rwrist -20.2896
rhand -18.8798 0.137151
rfingers 7.12502
rthumb 7.42118 -29.7127
lclavicle 1.88845e-014 2.38542e-015
lhumerus -37.709 -2.28659 78.3027
lradius 32.49
lwrist 2.80918
lhand -17.8829 10.9253
lfingers 7.12502
lthumb 8.38335 40.7389
rfemur 1.31897 -0.10538 18.38
rtibia 25.562
rfoot -27.5586 -27.2196
rtoes -14.8208
lfemur -5.00397 -21.0903 0.568193
ltibia 23.8154
lfoot -12.2645 21.8965
ltoes -8.46996
184
root -9.58053 15.0019 -2.39393 -3.27618 -12.4571 -3.12329
lowerback 8.94791 2.08341 0.96927
upperback 5.0542 2.80714 -1.21448
thorax 0.333116 1.43258 -2.03118
lowerneck -6.50397 10.6269 12.383
upperneck 25.4449 14.7997 -7.10903
head 10.7221 7.26592 -2.78255
rclavicle -2.68359e-014 2.14687e-014
rhumerus -47.3594 -1.47298 -80.0447
rradius 32.7149
rwrist -20.548
rhand -19.3858 -0.0166845
rfingers 7.12502
rthumb 6.93277 -29.8832
lclavicle -2.68359e-014 2.14687e-014
lhumerus -37.3866 -3.11729 78.5744
lradius 32.4126
lwrist 2.42647
lhand -17.9111 10.6945
lfingers 7.12502
lthumb 8.35609 40.5092
rfemur 1.4578 0.165933 17.3174
rtibia 25.2823
rfoot -26.8071 -27.5934
rtoes -15.8572
lfemur -4.62482 -21.1231 0.142167
ltibia 23.0817
lfoot -13.111 20.0384
ltoes -24.9149
185
root -9.3246 14.9941 -2.3412 -3.27847 -12.1322 -3.09858
lowerback 8.99347 2.16908 0.998352
upperback 5.11467 2.92322 -1.27233
thorax 0.380703 1.49314 -2.11696
lowerneck -6.63707 10.5226 12.568
upperneck 25.7872 14.6245 -7.07031
head 10.8696 7.20083 -2.81429
rclavicle -1.11319e-014 1.51076e-014
rhumerus -47.5575 -2.3615 -79.56
rradius 32.5268
rwrist -20.6563
rhand -19.7296 0.120574
rfingers 7.12502
rthumb 6.60084 -29.7566
lclavicle -1.11319e-014 1.51076e-014
lhumerus -37.1072 -3.35292 78.8684
lradius 32.3617
lwrist 1.89589
lhand -17.8092 10.8513
lfingers 7.12502
lthumb 8.45443 40.6621
rfemur 1.81151 0.512362 16.1961
rtibia 24.7406
rfoot -26.5915 -27.7233
rtoes -15.5703
lfemur -4.61157 -20.7818 -0.536299
ltibia 22.6771
lfoot -13.3898 18.5967
ltoes -27.0751
186
root -9.05507 14.9935 -2.29282 -3.05759 -11.9575 -3.27078
lowerback 8.95997 2.19273 1.1734
upperback 5.1482 2.96808 -1.24732
thorax 0.443842 1.51992 -2.19031
lowerneck -6.80428 10.5118 12.6725
upperneck 26.0758 14.6048 -7.10204
head 11.0209 7.19094 -2.83389
rclavicle -2.76311e-014 3.97569e-015
rhumerus -47.6409 -2.63355 -79.2936
rradius 32.4727
rwrist -21.0687
rhand -19.7851 0.0246968
rfingers 7.12502
rthumb 6.54724 -29.8541
lclavicle -2.76311e-014 3.97569e-015
lhumerus -36.872 -3.04456 79.1115
lradius 32.3189
lwrist 1.45909
lhand -17.9559 11.2355
lfingers 7.12502
lthumb 8.31285 41.052
rfemur 2.13359 1.21723 15.351
rtibia 23.8351
rfoot -26.2224 -28.2747
rtoes -15.5267
lfemur -5.03541 -20.3468 -1.16756
ltibia 22.7005
lfoot -13.5992 19.5173
ltoes -25.6348
187
root -8.78272 15.0032 -2.24866 -2.92795 -11.8428 -2.96203
lowerback 8.97296 2.27061 0.751956
upperback 5.17922 3.03925 -1.33942
thorax 0.454637 1.54795 -2.05502
lowerneck -6.87275 10.4731 12.6785
upperneck 26.186 14.5094 -6.9643
head 11.0542 7.15922 -2.79606
rclavicle -3.8763e-014 -3.02153e-014
rhumerus -47.7417 -2.66193 -79.193
rradius 32.4698
rwrist -21.5016
rhand -19.7994 -0.193794
rfingers 7.12502
rthumb 6.53351 -30.073
lclavicle -3.8763e-014 -3.02153e-014
lhumerus -36.6495 -2.87422 79.3709
lradius 32.2432
lwrist 1.56306
lhand -18.3045 11.5115
lfingers 7.12502
lthumb 7.97648 41.341
rfemur 2.61877 2.43869 14.1178
rtibia 22.6301
rfoot -26.0914 -29.1947
rtoes -14.8275
lfemur -5.57224 -19.7249 -2.45261
ltibia 23.0731
lfoot -14.2877 18.7489
ltoes -25.3304
188
root -8.51162 15.0325 -2.21137 -2.78908 -11.8163 -2.23213
lowerback 8.9682 2.44656 -0.128671
upperback 5.17169 3.20484 -1.56671
thorax 0.420534 1.61449 -1.81068
lowerneck -6.97773 10.3601 12.9102
upperneck 26.4042 14.3245 -7.00957
head 11.1608 7.0879 -2.86991
rclavicle 1.72943e-014 7.15625e-015
rhumerus -47.746 -2.89731 -79.1027
rradius 32.1993
rwrist -21.3462
rhand -19.814 -0.161238
rfingers 7.12502
rthumb 6.51934 -30.0409
lclavicle 1.72943e-014 7.15625e-015
lhumerus -36.3566 -2.99598 79.6302
lradius 32.0236
lwrist 1.89482
lhand -18.3725 11.4441
lfingers 7.12502
lthumb 7.91086 41.2761
rfemur 3.19145 4.65924 12.6669
rtibia 21.2023
rfoot -27.4239 -30.0971
rtoes -10.7048
lfemur -6.35804 -19.0098 -4.2023
ltibia 23.7481
lfoot -14.0158 18.7763
ltoes -25.5707
189
root -8.24162 15.0777 -2.18037 -2.54347 -11.8837 -1.33793
lowerback 8.87086 2.65083 -1.13881
upperback 5.12628 3.39896 -1.88353
thorax 0.394321 1.69385 -1.58607
lowerneck -6.65834 10.2076 12.4661
upperneck 26.0491 14.0222 -6.41486
head 10.8421 6.98144 -2.65535
rclavicle -1.96797e-014 -3.97569e-015
rhumerus -47.5601 -3.29589 -79.0849
rradius 31.6903
rwrist -20.7209
rhand -19.6733 0.24098
rfingers 7.12502
rthumb 6.65522 -29.6344
lclavicle -1.96797e-014 -3.97569e-015
lhumerus -36.0348 -3.0062 79.8127
lradius 31.808
lwrist 2.0571
lhand -18.598 11.9795
lfingers 7.12502
lthumb 7.6932 41.8195
rfemur 3.6536 7.64896 11.1932
rtibia 19.6302
rfoot -29.5057 -31.3502
rtoes -5.44174
lfemur -7.45076 -17.9847 -6.07594
ltibia 24.5847
lfoot -14.0213 17.7281
ltoes -24.9353
190
root -7.96463 15.1204 -2.14802 -2.34746 -12.1629 -1.07621
lowerback 8.94331 2.82975 -1.26923
upperback 5.12141 3.62152 -2.14929
thorax 0.364294 1.80581 -1.80978
lowerneck -6.65938 10.1252 12.6193
upperneck 26.1268 13.8805 -6.40663
head 10.8687 6.9309 -2.69674
rclavicle -3.39922e-014 1.51076e-014
rhumerus -47.2949 -3.69018 -79.286
rradius 31.2402
rwrist -20.0681
rhand -19.4236 0.83525
rfingers 7.12502
rthumb 6.89621 -29.0324
lclavicle -3.39922e-014 1.51076e-014
lhumerus -35.7941 -3.06709 79.8745
lradius 31.7692
lwrist 2.3353
lhand -18.8992 13.04
lfingers 7.12502
lthumb 7.40247 42.8905
rfemur 4.13686 10.299 10.2509
rtibia 17.9747
rfoot -31.2945 -32.6007
rtoes -0.564002
lfemur -8.32068 -16.6246 -7.34928
ltibia 25.4678
lfoot -14.0042 16.7651
ltoes -23.8455
191
root -7.68472 15.1573 -2.1159 -1.92465 -12.6708 -1.3379
lowerback 8.90776 3.02445 -0.738891
upperback 5.08214 3.91769 -2.35056
thorax 0.400103 1.96818 -2.33625
lowerneck -6.76593 10.0811 12.5301
upperneck 26.1193 13.7555 -6.1807
head 10.8476 6.88484 -2.61592
rclavicle 2.68359e-014 -1.03368e-014
rhumerus -47.0748 -3.90034 -79.6809
rradius 31.1291
rwrist -19.6222
rhand -18.8151 1.39885
rfingers 7.12502
rthumb 7.48365 -28.4488
lclavicle 2.68359e-014 -1.03368e-014
lhumerus -35.5399 -3.42649 79.8702
lradius 31.7177
lwrist 2.83012
lhand -18.7294 13.4278
lfingers 7.12502
lthumb 7.56635 43.2725
rfemur 4.2994 12.2823 9.72256
rtibia 16.412
rfoot -33.6404 -32.8418
rtoes 6.91512
lfemur -9.17296 -15.2951 -8.0438
ltibia 26.2908
lfoot -14.1461 16.1978
ltoes -23.2588
